<svg xmlns="http://www.w3.org/2000/svg" xmlns:xlink="http://www.w3.org/1999/xlink" width="500" zoomAndPan="magnify" viewBox="0 0 375 374.999991" height="500" preserveAspectRatio="xMidYMid meet" version="1.0"><defs><g/><clipPath id="25ca699c04"><path d="M 129.273438 94.351562 L 245.503906 94.351562 L 245.503906 212.851562 L 129.273438 212.851562 Z M 129.273438 94.351562 " clip-rule="nonzero"/></clipPath></defs><rect x="-37.5" width="450" fill="#ffffff" y="-37.499999" height="449.999989" fill-opacity="1"/><rect x="-37.5" width="450" fill="#ffffff" y="-37.499999" height="449.999989" fill-opacity="1"/><g fill="#2ab4e8" fill-opacity="1"><g transform="translate(92.704696, 260.762654)"><g><path d="M 3.921875 0 L 3.921875 -24.3125 L 0.34375 -24.3125 L 0.34375 -30.09375 L 13.515625 -30.09375 L 13.515625 -24.3125 L 9.953125 -24.3125 L 9.953125 0 Z M 3.921875 0 "/></g></g></g><g fill="#2ab4e8" fill-opacity="1"><g transform="translate(109.696084, 260.762654)"><g><path d="M 8.40625 0.28125 C 5.769531 0.28125 3.878906 -0.441406 2.734375 -1.890625 C 1.585938 -3.335938 1.015625 -5.5 1.015625 -8.375 L 1.015625 -18.671875 C 1.015625 -21.023438 1.691406 -22.820312 3.046875 -24.0625 C 4.398438 -25.300781 6.289062 -25.921875 8.71875 -25.921875 C 13.644531 -25.921875 16.109375 -23.503906 16.109375 -18.671875 L 16.109375 -16.8125 C 16.109375 -14.945312 16.085938 -13.429688 16.046875 -12.265625 L 7.140625 -12.265625 L 7.140625 -7.28125 C 7.140625 -6.394531 7.234375 -5.703125 7.421875 -5.203125 C 7.609375 -4.703125 8.007812 -4.453125 8.625 -4.453125 C 9.082031 -4.453125 9.410156 -4.59375 9.609375 -4.875 C 9.804688 -5.15625 9.921875 -5.472656 9.953125 -5.828125 C 9.992188 -6.191406 10.015625 -6.722656 10.015625 -7.421875 L 10.015625 -9.90625 L 16.109375 -9.90625 L 16.109375 -8.4375 C 16.109375 -5.445312 15.53125 -3.242188 14.375 -1.828125 C 13.21875 -0.421875 11.226562 0.28125 8.40625 0.28125 Z M 10.015625 -15.3125 L 10.015625 -18.609375 C 10.015625 -20.453125 9.5625 -21.375 8.65625 -21.375 C 7.625 -21.375 7.109375 -20.453125 7.109375 -18.609375 L 7.109375 -15.3125 Z M 10.015625 -15.3125 "/></g></g></g><g fill="#2ab4e8" fill-opacity="1"><g transform="translate(129.910484, 260.762654)"><g><path d="M 1.21875 -25.640625 L 7.21875 -25.640625 L 7.21875 -22.671875 C 7.5 -23.765625 7.976562 -24.578125 8.65625 -25.109375 C 9.332031 -25.648438 10.289062 -25.921875 11.53125 -25.921875 C 12.53125 -25.921875 13.394531 -25.691406 14.125 -25.234375 C 14.863281 -24.785156 15.382812 -24.160156 15.6875 -23.359375 C 16.207031 -24.253906 16.78125 -24.90625 17.40625 -25.3125 C 18.039062 -25.71875 18.914062 -25.921875 20.03125 -25.921875 C 22.039062 -25.921875 23.4375 -25.304688 24.21875 -24.078125 C 25 -22.859375 25.390625 -21.078125 25.390625 -18.734375 L 25.328125 0 L 19.15625 0 L 19.15625 -18.84375 C 19.15625 -20.5 18.738281 -21.328125 17.90625 -21.328125 C 17.320312 -21.328125 16.898438 -21.039062 16.640625 -20.46875 C 16.378906 -19.90625 16.25 -19.222656 16.25 -18.421875 L 16.25 0 L 10.125 0 L 10.125 -18.84375 C 10.125 -19.570312 10.046875 -20.15625 9.890625 -20.59375 C 9.742188 -21.039062 9.425781 -21.265625 8.9375 -21.265625 C 8.300781 -21.265625 7.851562 -20.953125 7.59375 -20.328125 C 7.34375 -19.710938 7.21875 -18.972656 7.21875 -18.109375 L 7.21875 0 L 1.21875 0 Z M 1.21875 -25.640625 "/></g></g></g><g fill="#2ab4e8" fill-opacity="1"><g transform="translate(159.583726, 260.762654)"><g><path d="M 1.21875 -25.640625 L 7.46875 -25.640625 L 7.46875 -24.28125 C 8.351562 -25.375 9.578125 -25.921875 11.140625 -25.921875 C 13.128906 -25.921875 14.515625 -25.253906 15.296875 -23.921875 C 16.078125 -22.585938 16.46875 -20.742188 16.46875 -18.390625 L 16.46875 -8.890625 C 16.46875 -6.890625 16.347656 -5.25 16.109375 -3.96875 C 15.878906 -2.695312 15.363281 -1.671875 14.5625 -0.890625 C 13.769531 -0.109375 12.570312 0.28125 10.96875 0.28125 C 9.425781 0.28125 8.257812 -0.148438 7.46875 -1.015625 L 7.46875 5.109375 L 1.21875 5.109375 Z M 8.9375 -4.484375 C 9.5 -4.484375 9.859375 -4.738281 10.015625 -5.25 C 10.179688 -5.769531 10.265625 -6.519531 10.265625 -7.5 L 10.265625 -18.390625 C 10.265625 -19.273438 10.179688 -19.953125 10.015625 -20.421875 C 9.859375 -20.890625 9.484375 -21.125 8.890625 -21.125 C 7.941406 -21.125 7.46875 -20.238281 7.46875 -18.46875 L 7.46875 -7.21875 C 7.46875 -6.351562 7.566406 -5.679688 7.765625 -5.203125 C 7.960938 -4.722656 8.351562 -4.484375 8.9375 -4.484375 Z M 8.9375 -4.484375 "/></g></g></g><g fill="#2ab4e8" fill-opacity="1"><g transform="translate(180.218532, 260.762654)"><g><path d="M 3.921875 0 L 0.8125 -25.640625 L 6.0625 -25.640625 L 7.78125 -11.875 L 9.25 -25.640625 L 14.609375 -25.640625 L 16.359375 -11.875 L 17.796875 -25.640625 L 23.578125 -25.640625 L 20.28125 0 L 14.15625 0 L 12.328125 -14.578125 L 10.71875 0 Z M 3.921875 0 "/></g></g></g><g fill="#2ab4e8" fill-opacity="1"><g transform="translate(207.719752, 260.762654)"><g><path d="M 5.890625 0.28125 C 3.898438 0.28125 2.535156 -0.375 1.796875 -1.6875 C 1.066406 -3.007812 0.703125 -4.898438 0.703125 -7.359375 C 0.703125 -9.367188 0.960938 -10.910156 1.484375 -11.984375 C 2.015625 -13.054688 2.742188 -13.84375 3.671875 -14.34375 C 4.609375 -14.84375 6.035156 -15.398438 7.953125 -16.015625 L 9.640625 -16.5625 L 9.640625 -19.203125 C 9.640625 -19.878906 9.503906 -20.394531 9.234375 -20.75 C 8.960938 -21.113281 8.640625 -21.296875 8.265625 -21.296875 C 7.941406 -21.296875 7.65625 -21.144531 7.40625 -20.84375 C 7.164062 -20.539062 7.046875 -20.132812 7.046875 -19.625 L 7.046875 -18.078125 L 1.09375 -18.078125 L 1.09375 -18.921875 C 1.09375 -21.441406 1.679688 -23.238281 2.859375 -24.3125 C 4.035156 -25.382812 5.957031 -25.921875 8.625 -25.921875 C 10.75 -25.921875 12.472656 -25.363281 13.796875 -24.25 C 15.128906 -23.144531 15.796875 -21.578125 15.796875 -19.546875 L 15.796875 0 L 9.703125 0 L 9.703125 -3.046875 C 9.398438 -1.992188 8.914062 -1.175781 8.25 -0.59375 C 7.582031 -0.0078125 6.796875 0.28125 5.890625 0.28125 Z M 8.296875 -4.484375 C 8.765625 -4.484375 9.097656 -4.675781 9.296875 -5.0625 C 9.492188 -5.445312 9.59375 -5.921875 9.59375 -6.484375 L 9.59375 -13.625 C 8.6875 -13.28125 8.015625 -12.835938 7.578125 -12.296875 C 7.148438 -11.753906 6.9375 -11.003906 6.9375 -10.046875 L 6.9375 -6.765625 C 6.9375 -5.242188 7.390625 -4.484375 8.296875 -4.484375 Z M 8.296875 -4.484375 "/></g></g></g><g fill="#2ab4e8" fill-opacity="1"><g transform="translate(227.758988, 260.762654)"><g><path d="M 1.21875 0 L 1.21875 -30.265625 L 7.46875 -30.265625 L 7.46875 0 Z M 1.21875 0 "/></g></g></g><g fill="#2ab4e8" fill-opacity="1"><g transform="translate(239.565527, 260.762654)"><g><path d="M 1.21875 0 L 1.21875 -30.265625 L 7.46875 -30.265625 L 7.46875 0 Z M 1.21875 0 "/></g></g></g><g fill="#2ab4e8" fill-opacity="1"><g transform="translate(251.372066, 260.762654)"><g><path d="M 8.40625 0.28125 C 5.769531 0.28125 3.878906 -0.441406 2.734375 -1.890625 C 1.585938 -3.335938 1.015625 -5.5 1.015625 -8.375 L 1.015625 -18.671875 C 1.015625 -21.023438 1.691406 -22.820312 3.046875 -24.0625 C 4.398438 -25.300781 6.289062 -25.921875 8.71875 -25.921875 C 13.644531 -25.921875 16.109375 -23.503906 16.109375 -18.671875 L 16.109375 -16.8125 C 16.109375 -14.945312 16.085938 -13.429688 16.046875 -12.265625 L 7.140625 -12.265625 L 7.140625 -7.28125 C 7.140625 -6.394531 7.234375 -5.703125 7.421875 -5.203125 C 7.609375 -4.703125 8.007812 -4.453125 8.625 -4.453125 C 9.082031 -4.453125 9.410156 -4.59375 9.609375 -4.875 C 9.804688 -5.15625 9.921875 -5.472656 9.953125 -5.828125 C 9.992188 -6.191406 10.015625 -6.722656 10.015625 -7.421875 L 10.015625 -9.90625 L 16.109375 -9.90625 L 16.109375 -8.4375 C 16.109375 -5.445312 15.53125 -3.242188 14.375 -1.828125 C 13.21875 -0.421875 11.226562 0.28125 8.40625 0.28125 Z M 10.015625 -15.3125 L 10.015625 -18.609375 C 10.015625 -20.453125 9.5625 -21.375 8.65625 -21.375 C 7.625 -21.375 7.109375 -20.453125 7.109375 -18.609375 L 7.109375 -15.3125 Z M 10.015625 -15.3125 "/></g></g></g><g fill="#2ab4e8" fill-opacity="1"><g transform="translate(271.586473, 260.762654)"><g><path d="M 6.515625 0.28125 C 4.898438 0.28125 3.789062 -0.0546875 3.1875 -0.734375 C 2.582031 -1.410156 2.28125 -2.5 2.28125 -4 L 2.28125 -20 L 0.5625 -20 L 0.5625 -24.65625 L 2.28125 -24.65625 L 2.28125 -30.09375 L 8.234375 -30.09375 L 8.234375 -24.65625 L 9.984375 -24.65625 L 9.984375 -20 L 8.234375 -20 L 8.234375 -5.609375 C 8.234375 -5.160156 8.265625 -4.832031 8.328125 -4.625 C 8.398438 -4.414062 8.585938 -4.3125 8.890625 -4.3125 C 9.128906 -4.3125 9.351562 -4.320312 9.5625 -4.34375 C 9.769531 -4.363281 9.910156 -4.375 9.984375 -4.375 L 9.984375 -0.171875 C 9.628906 -0.078125 9.117188 0.0195312 8.453125 0.125 C 7.796875 0.226562 7.148438 0.28125 6.515625 0.28125 Z M 6.515625 0.28125 "/></g></g></g><g clip-path="url(#25ca699c04)"><path fill="#0496f5" d="M 184.746094 191.640625 C 187.261719 190.179688 190.484375 191.046875 191.941406 193.578125 C 193.394531 196.109375 192.53125 199.347656 190.011719 200.808594 C 187.492188 202.269531 184.269531 201.402344 182.816406 198.871094 C 181.363281 196.339844 182.226562 193.101562 184.746094 191.640625 M 226.550781 122.742188 C 225.09375 120.210938 225.957031 116.972656 228.476562 115.511719 C 230.996094 114.050781 234.21875 114.917969 235.675781 117.449219 C 237.128906 119.980469 236.265625 123.21875 233.746094 124.679688 C 231.226562 126.140625 228.003906 125.277344 226.550781 122.742188 Z M 157.335938 132.703125 L 157.335938 158.246094 L 146.324219 151.859375 L 146.320312 151.859375 L 135.316406 145.476562 Z M 191.390625 112.949219 L 202.394531 106.5625 L 213.402344 100.179688 L 213.402344 125.71875 Z M 191.390625 178 L 213.40625 165.226562 L 213.40625 177.992188 L 213.402344 177.992188 L 213.402344 190.769531 Z M 174.363281 155.351562 L 187.378906 147.800781 L 200.390625 155.351562 L 176.367188 169.285156 L 163.355469 161.738281 Z M 189.378906 144.308594 L 189.378906 129.210938 L 213.402344 143.144531 L 213.402344 158.246094 L 202.390625 151.855469 Z M 172.351562 123.988281 L 185.367188 116.441406 L 185.367188 144.304688 L 172.351562 151.851562 Z M 148.195312 117.441406 C 149.648438 119.972656 148.785156 123.210938 146.265625 124.671875 C 143.746094 126.132812 140.523438 125.265625 139.070312 122.734375 C 137.613281 120.203125 138.480469 116.964844 140.996094 115.503906 C 143.515625 114.042969 146.738281 114.910156 148.195312 117.441406 Z M 161.339844 121.050781 L 183.34375 108.285156 L 174.359375 103.074219 L 174.355469 103.066406 L 160.339844 94.933594 L 159.335938 94.351562 L 158.335938 94.933594 L 144.320312 103.0625 L 130.300781 111.195312 L 129.300781 111.773438 L 129.300781 129.203125 L 129.304688 129.210938 L 129.304688 146.628906 L 130.300781 147.207031 L 144.320312 155.339844 L 144.324219 155.347656 L 157.335938 162.894531 L 157.335938 163.402344 L 183.359375 178.496094 L 179.339844 180.828125 L 157.335938 168.0625 L 157.335938 177.992188 L 157.339844 177.996094 L 157.339844 195.417969 L 158.335938 195.996094 L 172.351562 204.128906 L 172.355469 204.132812 L 186.375 212.265625 L 187.378906 212.847656 L 188.378906 212.265625 L 202.394531 204.136719 L 216.414062 196.003906 L 217.414062 195.425781 L 217.414062 177.996094 L 217.410156 177.988281 L 217.410156 132.710938 L 221.429688 135.042969 L 221.429688 160.570312 L 230.429688 155.351562 L 244.445312 147.21875 L 245.445312 146.636719 L 245.445312 129.210938 L 245.441406 129.203125 L 245.441406 111.78125 L 244.445312 111.203125 L 230.429688 103.074219 L 230.425781 103.066406 L 216.410156 94.933594 L 215.402344 94.351562 L 214.402344 94.933594 L 200.386719 103.0625 L 187.367188 110.617188 L 161.339844 125.714844 Z M 161.339844 121.050781 " fill-opacity="1" fill-rule="evenodd"/></g></svg>